<?xml version="1.0" encoding="utf-8"?>
<!-- Generator: Adobe Illustrator 25.4.1, SVG Export Plug-In . SVG Version: 6.00 Build 0)  -->
<svg version="1.1" id="Layer_1" xmlns:svgjs="http://svgjs.com/svgjs"
	 xmlns="http://www.w3.org/2000/svg" xmlns:xlink="http://www.w3.org/1999/xlink" x="0px" y="0px" viewBox="0 0 2194.1 1378.5"
	 style="enable-background:new 0 0 2194.1 1378.5;" xml:space="preserve">
<style type="text/css">
	.st0{opacity:0.5;}
	.st1{opacity:0.24;fill:none;stroke:#8F8C9F;stroke-width:3;stroke-miterlimit:10;}
</style>
<g class="st0">
	<path class="st1" d="M192,166.7l95.3,55v110l-95.3,55l-95.3-55v-110L192,166.7z M96.8,331.7l95.3,55v110l-95.3,55l-95.3-55v-110
		L96.8,331.7z M96.8,661.7l95.3,55v110l-95.3,55l-95.3-55v-110L96.8,661.7z M287.3,1.7l95.3,55v110l-95.3,55l-95.3-55v-110
		L287.3,1.7z M382.6,166.7l95.3,55v110l-95.3,55l-95.3-55v-110L382.6,166.7z M287.3,661.7l95.3,55v110l-95.3,55l-95.3-55v-110
		L287.3,661.7z M287.3,991.7l95.3,55v110l-95.3,55l-95.3-55v-110L287.3,991.7z M573.1,166.7l95.3,55v110l-95.3,55l-95.3-55v-110
		L573.1,166.7z M573.1,496.7l95.3,55v110l-95.3,55l-95.3-55v-110L573.1,496.7z M573.1,826.7l95.3,55v110l-95.3,55l-95.3-55v-110
		L573.1,826.7z M668.4,1.7l95.3,55v110l-95.3,55l-95.3-55v-110L668.4,1.7z M763.6,826.7l95.3,55v110l-95.3,55l-95.3-55v-110
		L763.6,826.7z M668.4,991.7l95.3,55v110l-95.3,55l-95.3-55v-110L668.4,991.7z M858.9,1.7l95.3,55v110l-95.3,55l-95.3-55v-110
		L858.9,1.7z M954.2,496.7l95.3,55v110l-95.3,55l-95.3-55v-110L954.2,496.7z M1049.4,331.7l95.3,55v110l-95.3,55l-95.3-55v-110
		L1049.4,331.7z M1049.4,991.7l95.3,55v110l-95.3,55l-95.3-55v-110L1049.4,991.7z M1335.2,166.7l95.3,55v110l-95.3,55l-95.3-55v-110
		L1335.2,166.7z M1335.2,496.7l95.3,55v110l-95.3,55l-95.3-55v-110L1335.2,496.7z M1240,661.7l95.3,55v110l-95.3,55l-95.3-55v-110
		L1240,661.7z M1335.2,826.7l95.3,55v110l-95.3,55l-95.3-55v-110L1335.2,826.7z M1240,991.7l95.3,55v110l-95.3,55l-95.3-55v-110
		L1240,991.7z M1335.2,1156.7l95.3,55v110l-95.3,55l-95.3-55v-110L1335.2,1156.7z M1430.5,1.7l95.3,55v110l-95.3,55l-95.3-55v-110
		L1430.5,1.7z M1430.5,331.7l95.3,55v110l-95.3,55l-95.3-55v-110L1430.5,331.7z M1525.8,496.7l95.3,55v110l-95.3,55l-95.3-55v-110
		L1525.8,496.7z M1430.5,661.7l95.3,55v110l-95.3,55l-95.3-55v-110L1430.5,661.7z M1716.3,496.7l95.3,55v110l-95.3,55l-95.3-55v-110
		L1716.3,496.7z M1621,661.7l95.3,55v110l-95.3,55l-95.3-55v-110L1621,661.7z M1716.3,826.7l95.3,55v110l-95.3,55l-95.3-55v-110
		L1716.3,826.7z M1621,991.7l95.3,55v110l-95.3,55l-95.3-55v-110L1621,991.7z M1716.3,1156.7l95.3,55v110l-95.3,55l-95.3-55v-110
		L1716.3,1156.7z M1906.8,496.7l95.3,55v110l-95.3,55l-95.3-55v-110L1906.8,496.7z M1811.5,661.7l95.3,55v110l-95.3,55l-95.3-55
		v-110L1811.5,661.7z M1906.8,826.7l95.3,55v110l-95.3,55l-95.3-55v-110L1906.8,826.7z M1906.8,1156.7l95.3,55v110l-95.3,55
		l-95.3-55v-110L1906.8,1156.7z M2002.1,1.7l95.3,55v110l-95.3,55l-95.3-55v-110L2002.1,1.7z M2097.4,1156.7l95.3,55v110l-95.3,55
		l-95.3-55v-110L2097.4,1156.7z"/>
</g>
</svg>
